<svg width="877" height="639" viewBox="0 0 877 639" fill="none" xmlns="http://www.w3.org/2000/svg">
<g clip-path="url(#clip0_201_8)">
<path d="M638.62 569.837C633.112 571.773 627.198 572.258 621.448 571.245C615.697 570.232 610.305 567.756 605.789 564.054C594.29 554.402 590.684 538.506 587.752 523.783L579.075 480.233L597.241 492.741C610.305 501.736 623.663 511.02 632.707 524.049C641.752 537.077 645.698 554.864 638.433 568.962" fill="#6C63FF"/>
<path d="M635.816 625.593C638.102 608.935 640.455 592.063 638.847 575.227C637.422 560.274 632.861 545.673 623.573 533.695C618.644 527.351 612.645 521.915 605.847 517.632C604.075 516.514 602.444 519.322 604.208 520.436C615.971 527.869 625.068 538.846 630.19 551.783C635.846 566.169 636.755 581.852 635.78 597.134C635.191 606.376 633.94 615.557 632.683 624.728C632.584 625.143 632.646 625.579 632.856 625.95C633.067 626.321 633.41 626.598 633.818 626.725C634.233 626.837 634.675 626.781 635.049 626.568C635.423 626.356 635.698 626.005 635.815 625.591L635.816 625.593Z" fill="#F2F2F2"/>
<path d="M619.359 598.864C616.997 602.456 613.75 605.378 609.93 607.35C606.111 609.322 601.848 610.277 597.552 610.123C586.51 609.599 577.308 601.896 569.025 594.58L544.521 572.945L560.738 572.169C572.401 571.61 584.364 571.086 595.472 574.687C606.58 578.287 616.825 586.939 618.855 598.437" fill="#E6E6E6"/>
<path d="M642.278 635.168C631.27 615.692 618.504 594.046 595.69 587.127C589.347 585.21 582.696 584.524 576.096 585.104C574.015 585.284 574.535 588.49 576.611 588.312C587.676 587.393 598.719 590.315 607.882 596.585C616.699 602.586 623.565 610.931 629.375 619.779C632.934 625.199 636.122 630.849 639.311 636.491C640.329 638.295 643.309 636.992 642.278 635.168Z" fill="#F2F2F2"/>
<path d="M395.02 408.753C428.024 408.753 454.779 381.998 454.779 348.993C454.779 315.989 428.024 289.233 395.02 289.233C362.015 289.233 335.26 315.989 335.26 348.993C335.26 381.998 362.015 408.753 395.02 408.753Z" fill="white"/>
<path d="M395.02 409.753C383.002 409.753 371.255 406.189 361.263 399.513C351.271 392.837 343.484 383.347 338.885 372.245C334.286 361.143 333.083 348.926 335.427 337.14C337.772 325.353 343.558 314.527 352.056 306.03C360.553 297.532 371.38 291.745 383.166 289.401C394.952 287.056 407.169 288.26 418.271 292.858C429.374 297.457 438.863 305.245 445.539 315.237C452.216 325.229 455.779 336.976 455.779 348.993C455.761 365.102 449.354 380.546 437.963 391.937C426.572 403.327 411.128 409.735 395.02 409.753V409.753ZM395.02 290.233C383.398 290.233 372.037 293.68 362.374 300.136C352.711 306.593 345.18 315.77 340.733 326.507C336.285 337.244 335.122 349.058 337.389 360.457C339.656 371.855 345.252 382.325 353.47 390.543C361.688 398.76 372.158 404.357 383.556 406.624C394.954 408.891 406.769 407.728 417.506 403.28C428.243 398.833 437.42 391.301 443.877 381.638C450.333 371.975 453.779 360.615 453.779 348.993C453.762 333.415 447.565 318.479 436.55 307.463C425.534 296.447 410.598 290.251 395.02 290.233V290.233Z" fill="#3F3D56"/>
<path d="M384.935 394.383L384.536 394.212C384.308 394.114 378.952 391.694 380.876 381.689L380.911 381.579L381.624 379.988C383.719 375.299 384.743 370.202 384.622 365.068C380.318 364.968 358.253 364.342 355.67 361.944C354.805 361.143 354.282 360.04 354.21 358.863L354.079 356.759C354.038 356.114 354.13 355.468 354.349 354.861C354.568 354.253 354.909 353.697 355.351 353.227C355.794 352.756 356.327 352.381 356.92 352.125C357.513 351.868 358.152 351.736 358.797 351.736H360.068L359.168 350.708C358.448 349.885 358.051 348.829 358.051 347.735V345.995C358.052 345.19 358.267 344.4 358.675 343.706C359.083 343.012 359.67 342.44 360.373 342.049L361.095 341.648L360.68 341.232C360.098 340.65 359.686 339.919 359.489 339.12C359.292 338.32 359.318 337.481 359.563 336.695C359.809 335.909 360.265 335.205 360.882 334.659C361.499 334.114 362.254 333.747 363.064 333.6L367.788 332.741C367.886 331.045 368.58 329.439 369.747 328.204C370.913 326.97 372.478 326.186 374.165 325.992L387.668 324.435C394.653 323.189 401.772 322.875 408.839 323.499L410.907 323.681L431.799 321.189V349.119L412.479 351.771L396.208 370.63C393.464 378.587 389.88 386.228 385.516 393.425L384.935 394.383Z" fill="#FFB7B7"/>
<path opacity="0.2" d="M383.165 392.158L382.252 391.749L385.392 384.729L389.071 385.863L388.777 386.818L385.944 385.946L383.165 392.158Z" fill="black"/>
<path d="M345.982 327.096L339.586 238.353L340.803 208.733L315.872 214.281L325.055 330.563C324.015 332.707 323.584 335.095 323.81 337.467C324.036 339.839 324.91 342.104 326.336 344.012C327.762 345.921 329.685 347.401 331.896 348.291C334.106 349.18 336.519 349.444 338.869 349.055C341.22 348.665 343.418 347.637 345.224 346.082C347.03 344.528 348.373 342.507 349.107 340.24C349.842 337.973 349.938 335.548 349.387 333.23C348.836 330.912 347.658 328.79 345.982 327.096V327.096Z" fill="#FFB7B7"/>
<path d="M223.389 245.467L221.804 215.733L205.804 202.733L196.534 230.267L144.692 299.41C142.241 299.803 139.953 300.89 138.101 302.541C136.248 304.193 134.907 306.341 134.237 308.731C133.566 311.122 133.595 313.654 134.318 316.028C135.042 318.403 136.431 320.52 138.32 322.13C140.209 323.74 142.521 324.775 144.98 325.113C147.439 325.45 149.943 325.076 152.197 324.035C154.45 322.994 156.358 321.329 157.695 319.238C159.032 317.146 159.742 314.716 159.741 312.233C159.741 312.058 159.721 311.888 159.714 311.715L223.389 245.467Z" fill="#FFB7B7"/>
<path d="M226.258 235.949L187.205 194.269L216.202 133.598C216.789 132.355 217.62 131.242 218.646 130.328C219.672 129.413 220.872 128.715 222.174 128.275C223.454 127.836 224.809 127.659 226.159 127.756C227.509 127.853 228.826 128.222 230.03 128.839L230.315 128.984L226.258 235.949Z" fill="#6C63FF"/>
<path d="M313.406 229.38L306.469 188.712L306.495 188.61L322.895 124.14L324.432 123.961C328.863 123.473 333.317 124.655 336.922 127.276C340.528 129.897 343.026 133.77 343.928 138.135L359.382 215.077L313.406 229.38Z" fill="#6C63FF"/>
<path d="M322.24 106.733H239.24V69.2334C239.24 58.2269 243.613 47.6712 251.395 39.8885C259.178 32.1057 269.734 27.7334 280.74 27.7334C291.747 27.7334 302.302 32.1057 310.085 39.8885C317.868 47.6712 322.24 58.2269 322.24 69.2334V106.733Z" fill="#2F2E41"/>
<path d="M428.274 573.838L414.227 585.661L361.942 537.106L382.674 519.657L428.274 573.838Z" fill="#FFB7B7"/>
<path d="M443.317 584.439L398.024 622.56L397.542 621.987C393.607 617.311 391.69 611.264 392.214 605.176C392.737 599.087 395.657 593.456 400.332 589.52L400.334 589.519L427.997 566.236L443.317 584.439Z" fill="#2F2E41"/>
<path d="M217.724 619.763L199.365 619.762L190.63 548.945L217.728 548.946L217.724 619.763Z" fill="#FFB7B7"/>
<path d="M222.407 637.56L163.207 637.557V636.809C163.207 630.698 165.635 624.837 169.956 620.516C174.278 616.195 180.138 613.767 186.249 613.767H186.251L222.408 613.768L222.407 637.56Z" fill="#2F2E41"/>
<path d="M137.204 601.988L146.343 497.382C150.979 444.403 161.887 392.161 178.838 341.754L217.108 228.005L220.45 201.515C210.267 180.398 221.053 164.316 222.295 162.581L220.967 136.266C220.941 135.749 220.904 135.249 220.869 134.766C220.488 129.597 220.765 126.617 230.854 125.501L314.563 122.92C325.155 122.876 331.577 124.637 334.186 128.391C337.187 132.713 334.806 138.974 332.503 145.03C332.264 145.66 332.024 146.29 331.79 146.92L298.633 235.948C314.679 266.967 311.586 314.406 311.553 314.883L312.728 328.913L434.443 527.82L362.478 595.018L362.157 594.497L246.231 405.986L245.235 595.986L244.765 596.013L137.204 601.988Z" fill="#2F2E41"/>
<path d="M309.547 90.2095C318.533 73.7713 312.492 53.1611 296.054 44.1751C279.616 35.1892 259.005 41.2305 250.019 57.6686C241.034 74.1068 247.075 94.7171 263.513 103.703C279.951 112.689 300.561 106.648 309.547 90.2095Z" fill="#FFB7B7"/>
<path d="M296.16 45.1603C308.631 45.1603 318.74 35.0509 318.74 22.5802C318.74 10.1095 308.631 0 296.16 0C283.69 0 273.58 10.1095 273.58 22.5802C273.58 35.0509 283.69 45.1603 296.16 45.1603Z" fill="#2F2E41"/>
<path d="M326.24 75.7334H243.24V75.2334C243.24 64.2269 247.613 53.6712 255.395 45.8885C263.178 38.1057 273.734 33.7334 284.74 33.7334C295.747 33.7334 306.302 38.1057 314.085 45.8885C321.868 53.6712 326.24 64.2269 326.24 75.2334V75.7334Z" fill="#2F2E41"/>
<path d="M111.02 324.753C144.024 324.753 170.779 297.998 170.779 264.993C170.779 231.989 144.024 205.233 111.02 205.233C78.0152 205.233 51.2598 231.989 51.2598 264.993C51.2598 297.998 78.0152 324.753 111.02 324.753Z" fill="white"/>
<path d="M111.019 325.753C99.0023 325.753 87.255 322.189 77.2631 315.513C67.2713 308.837 59.4836 299.347 54.8848 288.245C50.2861 277.142 49.0828 264.926 51.4273 253.139C53.7717 241.353 59.5586 230.527 68.056 222.03C76.5534 213.532 87.3797 207.745 99.166 205.401C110.952 203.056 123.169 204.26 134.271 208.859C145.374 213.457 154.863 221.245 161.539 231.237C168.216 241.229 171.779 252.976 171.779 264.993C171.761 281.102 165.354 296.546 153.963 307.937C142.572 319.327 127.128 325.735 111.019 325.753V325.753ZM111.019 206.233C99.3979 206.233 88.0373 209.68 78.3743 216.136C68.7113 222.593 61.1799 231.77 56.7326 242.507C52.2852 253.244 51.1216 265.058 53.3889 276.457C55.6561 287.855 61.2525 298.325 69.4702 306.543C77.6879 314.76 88.1579 320.357 99.5561 322.624C110.954 324.891 122.769 323.728 133.506 319.28C144.243 314.833 153.42 307.301 159.877 297.638C166.333 287.975 169.779 276.615 169.779 264.993C169.762 249.415 163.565 234.479 152.549 223.463C141.534 212.447 126.598 206.251 111.019 206.233V206.233Z" fill="#3F3D56"/>
<path d="M74.2402 292.796V264.868L93.5604 262.216L109.831 243.356C112.575 235.399 116.16 227.758 120.523 220.561L121.104 219.603L121.504 219.774C121.732 219.872 127.088 222.292 125.164 232.296L125.129 232.407L124.416 233.998C122.321 238.687 121.297 243.784 121.417 248.918C125.722 249.018 147.787 249.644 150.37 252.042C151.235 252.843 151.758 253.947 151.83 255.124L151.961 257.228C152.001 257.872 151.909 258.518 151.69 259.125C151.471 259.733 151.13 260.289 150.688 260.76C150.246 261.23 149.712 261.605 149.12 261.862C148.527 262.118 147.888 262.25 147.242 262.25H145.972L146.871 263.278C147.591 264.101 147.988 265.157 147.988 266.25V267.991C147.988 268.796 147.773 269.586 147.364 270.28C146.956 270.974 146.37 271.546 145.667 271.937L144.944 272.338L145.36 272.753C145.942 273.336 146.354 274.067 146.551 274.866C146.748 275.666 146.722 276.505 146.476 277.291C146.231 278.077 145.775 278.781 145.158 279.327C144.541 279.872 143.786 280.239 142.975 280.386L138.252 281.245C138.153 282.941 137.46 284.547 136.293 285.782C135.126 287.016 133.562 287.8 131.874 287.994L118.371 289.551C111.387 290.797 104.268 291.112 97.2003 290.487L95.1323 290.305L74.2402 292.796Z" fill="#FFB7B7"/>
<path opacity="0.2" d="M120.647 229.257L116.968 228.124L117.262 227.168L120.095 228.041L122.875 221.829L123.788 222.237L120.647 229.257Z" fill="black"/>
<path d="M875.161 638.233H1C0.734784 638.233 0.480429 638.128 0.292892 637.94C0.105356 637.753 0 637.499 0 637.233C0 636.968 0.105356 636.714 0.292892 636.526C0.480429 636.339 0.734784 636.233 1 636.233H875.161C875.427 636.233 875.681 636.339 875.869 636.526C876.056 636.714 876.161 636.968 876.161 637.233C876.161 637.499 876.056 637.753 875.869 637.94C875.681 638.128 875.427 638.233 875.161 638.233Z" fill="#CBCBCB"/>
</g>
<defs>
<clipPath id="clip0_201_8">
<rect width="876.161" height="638.233" fill="white"/>
</clipPath>
</defs>
</svg>
